<svg width="14" height="13" viewBox="0 0 14 13" fill="none" xmlns="http://www.w3.org/2000/svg">
<path fill-rule="evenodd" clip-rule="evenodd" d="M0.44068 0.43868C0.721931 0.157779 1.10318 0 1.50068 0C1.89818 0 2.27943 0.157779 2.56068 0.43868L7.56068 5.43868C7.84158 5.71993 7.99936 6.10118 7.99936 6.49868C7.99936 6.89618 7.84158 7.27743 7.56068 7.55868L2.56068 12.5587C2.27633 12.8236 1.90024 12.9679 1.51163 12.961C1.12303 12.9542 0.752263 12.7967 0.477437 12.5219C0.202611 12.2471 0.0451865 11.8763 0.0383301 11.4877C0.0314736 11.0991 0.17572 10.723 0.44068 10.4387L4.37868 6.49868L0.43868 2.55868C0.157779 2.27743 0 1.89618 0 1.49868C0 1.10118 0.157779 0.719931 0.43868 0.43868H0.44068ZM6.44068 0.43868C6.72193 0.157779 7.10318 0 7.50068 0C7.89818 0 8.27943 0.157779 8.56068 0.43868L13.5607 5.43868C13.8416 5.71993 13.9994 6.10118 13.9994 6.49868C13.9994 6.89618 13.8416 7.27743 13.5607 7.55868L8.56068 12.5587C8.27633 12.8236 7.90024 12.9679 7.51163 12.961C7.12303 12.9542 6.75226 12.7967 6.47744 12.5219C6.20261 12.2471 6.04519 11.8763 6.03833 11.4877C6.03147 11.0991 6.17572 10.723 6.44068 10.4387L10.3787 6.49868L6.43868 2.55868C6.15778 2.27743 6 1.89618 6 1.49868C6 1.10118 6.15778 0.719931 6.43868 0.43868H6.44068Z" fill="#1A52B5"/>
</svg>
